REM DIRINDEX 1\2\6,1\2\7,1\2\8,1\2\9,1\3\10,1\3\11,1\4\12,1\4\13,1\4\14,1\5\15,1\5\16,1\5\17
REM DIRNAME cjc029,folder01,folder02,folder03,folder04,folder05,folder06,folder07,folder08,folder09,folder10,folder11,folder12,folder13,folder14,folder15,folder16
TITLE ""
FILE "1400_3_sec06_0517_0533.mp3" MP3
  TRACK 01 AUDIO
    TITLE "0:"
    INDEX 01 00:00:00
  TRACK 02 AUDIO
    TITLE "17:cjc029_5465"
    INDEX 01 00:00:15
  TRACK 03 AUDIO
    TITLE "0:"
    INDEX 01 00:01:15
  TRACK 04 AUDIO
    TITLE "16:cjc029_5466"
    INDEX 01 00:01:22
  TRACK 05 AUDIO
    TITLE "0:"
    INDEX 01 00:02:32
  TRACK 06 AUDIO
    TITLE "17:cjc029_5467"
    INDEX 01 00:03:15
  TRACK 07 AUDIO
    TITLE "0:"
    INDEX 01 00:04:38
  TRACK 08 AUDIO
    TITLE "16:cjc029_5468"
    INDEX 01 00:04:42
  TRACK 09 AUDIO
    TITLE "0:"
    INDEX 01 00:05:63
  TRACK 10 AUDIO
    TITLE "17:cjc029_5469"
    INDEX 01 00:06:45
  TRACK 11 AUDIO
    TITLE "0:"
    INDEX 01 00:08:54
  TRACK 12 AUDIO
    TITLE "16:cjc029_5470"
    INDEX 01 00:08:60
  TRACK 13 AUDIO
    TITLE "0:"
    INDEX 01 00:09:63
  TRACK 14 AUDIO
    TITLE "17:cjc029_5471"
    INDEX 01 00:10:49
  TRACK 15 AUDIO
    TITLE "0:"
    INDEX 01 00:11:72
  TRACK 16 AUDIO
    TITLE "16:cjc029_5472"
    INDEX 01 00:12:01
  TRACK 17 AUDIO
    TITLE "0:"
    INDEX 01 00:13:02
  TRACK 18 AUDIO
    TITLE "17:cjc029_5473"
    INDEX 01 00:13:61
  TRACK 19 AUDIO
    TITLE "0:"
    INDEX 01 00:16:26
  TRACK 20 AUDIO
    TITLE "16:cjc029_5474"
    INDEX 01 00:16:36
  TRACK 21 AUDIO
    TITLE "0:"
    INDEX 01 00:17:45
  TRACK 22 AUDIO
    TITLE "17:cjc029_5475"
    INDEX 01 00:18:25
  TRACK 23 AUDIO
    TITLE "0:"
    INDEX 01 00:19:48
  TRACK 24 AUDIO
    TITLE "16:cjc029_5476"
    INDEX 01 00:19:54
  TRACK 25 AUDIO
    TITLE "0:"
    INDEX 01 00:20:69
  TRACK 26 AUDIO
    TITLE "17:cjc029_5477"
    INDEX 01 00:21:57
  TRACK 27 AUDIO
    TITLE "0:"
    INDEX 01 00:23:03
  TRACK 28 AUDIO
    TITLE "16:cjc029_5478"
    INDEX 01 00:23:06
  TRACK 29 AUDIO
    TITLE "0:"
    INDEX 01 00:24:12
  TRACK 30 AUDIO
    TITLE "17:cjc029_5479"
    INDEX 01 00:24:72
  TRACK 31 AUDIO
    TITLE "0:"
    INDEX 01 00:27:51
  TRACK 32 AUDIO
    TITLE "16:cjc029_5480"
    INDEX 01 00:27:55
  TRACK 33 AUDIO
    TITLE "0:"
    INDEX 01 00:28:70
  TRACK 34 AUDIO
    TITLE "17:cjc029_5481"
    INDEX 01 00:29:54
  TRACK 35 AUDIO
    TITLE "0:"
    INDEX 01 00:31:51
  TRACK 36 AUDIO
    TITLE "16:cjc029_5482"
    INDEX 01 00:31:55
  TRACK 37 AUDIO
    TITLE "0:"
    INDEX 01 00:32:60
  TRACK 38 AUDIO
    TITLE "17:cjc029_5483"
    INDEX 01 00:33:46
  TRACK 39 AUDIO
    TITLE "0:"
    INDEX 01 00:35:06
  TRACK 40 AUDIO
    TITLE "16:cjc029_5484"
    INDEX 01 00:35:15
  TRACK 41 AUDIO
    TITLE "0:"
    INDEX 01 00:36:36
  TRACK 42 AUDIO
    TITLE "17:cjc029_5485"
    INDEX 01 00:37:22
  TRACK 43 AUDIO
    TITLE "0:"
    INDEX 01 00:38:63
  TRACK 44 AUDIO
    TITLE "16:cjc029_5486"
    INDEX 01 00:38:65
  TRACK 45 AUDIO
    TITLE "0:"
    INDEX 01 00:40:03
  TRACK 46 AUDIO
    TITLE "17:cjc029_5487"
    INDEX 01 00:40:64
  TRACK 47 AUDIO
    TITLE "0:"
    INDEX 01 00:42:31
  TRACK 48 AUDIO
    TITLE "16:cjc029_5488"
    INDEX 01 00:42:35
  TRACK 49 AUDIO
    TITLE "0:"
    INDEX 01 00:43:33
  TRACK 50 AUDIO
    TITLE "17:cjc029_5489"
    INDEX 01 00:44:18
  TRACK 51 AUDIO
    TITLE "0:"
    INDEX 01 00:46:62
  TRACK 52 AUDIO
    TITLE "16:cjc029_5490"
    INDEX 01 00:46:66
  TRACK 53 AUDIO
    TITLE "0:"
    INDEX 01 00:48:12
  TRACK 54 AUDIO
    TITLE "17:cjc029_5491"
    INDEX 01 00:48:71
  TRACK 55 AUDIO
    TITLE "0:"
    INDEX 01 00:50:29
  TRACK 56 AUDIO
    TITLE "16:cjc029_5492"
    INDEX 01 00:50:35
  TRACK 57 AUDIO
    TITLE "0:"
    INDEX 01 00:51:56
  TRACK 58 AUDIO
    TITLE "17:cjc029_5493"
    INDEX 01 00:52:45
  TRACK 59 AUDIO
    TITLE "0:"
    INDEX 01 00:55:67
  TRACK 60 AUDIO
    TITLE "16:cjc029_5494"
    INDEX 01 00:55:73
  TRACK 61 AUDIO
    TITLE "0:"
    INDEX 01 00:57:13
  TRACK 62 AUDIO
    TITLE "17:cjc029_5495"
    INDEX 01 00:57:74
  TRACK 63 AUDIO
    TITLE "0:"
    INDEX 01 00:59:30
  TRACK 64 AUDIO
    TITLE "16:cjc029_5496"
    INDEX 01 00:59:36
  TRACK 65 AUDIO
    TITLE "0:"
    INDEX 01 01:00:59
  TRACK 66 AUDIO
    TITLE "17:cjc029_5497"
    INDEX 01 01:01:44
  TRACK 67 AUDIO
    TITLE "0:"
    INDEX 01 01:03:00
  TRACK 68 AUDIO
    TITLE "16:cjc029_5498"
    INDEX 01 01:03:06
  TRACK 69 AUDIO
    TITLE "0:"
    INDEX 01 01:04:17
